<?xml version="1.0" encoding="utf-8"?>
<!-- Generator: Adobe Illustrator 19.2.1, SVG Export Plug-In . SVG Version: 6.00 Build 0)  -->
<svg version="1.1" id="Layer_1" xmlns="http://www.w3.org/2000/svg" xmlns:xlink="http://www.w3.org/1999/xlink" x="0px" y="0px"
	 viewBox="0 0 2000 2000" style="enable-background:new 0 0 2000 2000;" xml:space="preserve">
<style type="text/css">
	.st0{fill:#282828;}
</style>
<path class="st0" d="M1185.4,881.7L988,725.9c-2.3-1.8-5.3-2.1-7.9-0.9c-2.6,1.3-4.2,3.9-4.2,6.7v31.8l-47.6-37.7
	c-2.7-2.2-6.6-2.2-9.3,0L721.6,882c-0.1,0.1-0.1,0.1-0.2,0.2c-0.1,0.1-0.2,0.2-0.3,0.2c-0.2,0.2-0.3,0.3-0.5,0.5
	c-0.1,0.1-0.1,0.1-0.2,0.2c-0.2,0.2-0.4,0.5-0.6,0.8c0,0,0,0.1,0,0.1c-0.1,0.2-0.3,0.5-0.4,0.8c0,0.1-0.1,0.2-0.1,0.3
	c-0.1,0.2-0.2,0.4-0.2,0.6c0,0.1-0.1,0.2-0.1,0.3c-0.1,0.2-0.1,0.4-0.1,0.6c0,0.1,0,0.2-0.1,0.3c0,0.3,0.1,0.6,0.1,0.9
	c0,0,0.1,0,0.1,0v225.3c0,2.3,0.9,4.5,2.7,5.9l197.4,155.8c1.3,1.1,3,1.6,4.6,1.6c1.1,0,2.1-0.2,3.2-0.8c2.6-1.3,4.1-3.9,4.1-6.7
	v-31.8l47.8,37.7c1.4,1.1,3.1,1.6,4.7,1.6s3.3-0.5,4.7-1.6l197.5-156.1c0.1-0.1,0.1-0.1,0.2-0.2c0.1-0.1,0.2-0.2,0.3-0.2
	c0.2-0.2,0.3-0.3,0.5-0.5c0.1-0.1,0.1-0.1,0.2-0.2c0.2-0.2,0.4-0.5,0.6-0.8c0,0,0,0,0-0.1c0.2-0.2,0.3-0.5,0.4-0.8
	c0-0.1,0.1-0.2,0.1-0.3c0.1-0.2,0.2-0.4,0.2-0.6c0-0.1,0.1-0.2,0.1-0.3c0.1-0.2,0.1-0.4,0.1-0.6c0-0.1,0-0.2,0.1-0.3
	c0-0.3-0.2-0.6-0.2-0.9c0,0-0.2,0-0.2,0V887.6C1188,885.3,1187.2,883.1,1185.4,881.7z M991,747.3l182,144v206.2l-152.8-120.6
	l105.6-83.1c1.8-1.4,2.9-3.6,2.9-5.9s-1-4.5-2.8-5.9L991,775.4V747.3z M916,1047.2v159.1l-118-93.4l100.8-79.4L916,1047.2z
	 M923.7,1034l-12.7-10l72.5-57.1l11.5,9l1.2,1L923.7,1034z M991,953.7V794.5l118.1,93.4l-100.8,79.4L991,953.7z M923.7,741.3
	l52.3,41.3v171l-77.1,60.7l-111.6-87.9l-48.9-38.6L923.7,741.3z M916,1253.6l-182-144V903.4l42.2,33.4l110.6,87.2L781.4,1107
	c-1.8,1.4-2.9,3.6-2.9,5.9c0,2.3,0.9,4.5,2.7,5.9L916,1225.4V1253.6z M983.4,1259.5l-52.4-41.3v-171l77.2-60.7l160.6,126.5
	L983.4,1259.5z"/>
</svg>
