<?xml version="1.0" encoding="utf-8"?>
<!-- Generator: Adobe Illustrator 16.0.4, SVG Export Plug-In . SVG Version: 6.00 Build 0)  -->
<!DOCTYPE svg PUBLIC "-//W3C//DTD SVG 1.1//EN" "http://www.w3.org/Graphics/SVG/1.1/DTD/svg11.dtd">
<svg version="1.1" id="Layer_1" xmlns="http://www.w3.org/2000/svg" xmlns:xlink="http://www.w3.org/1999/xlink" x="0px" y="0px"
	 width="119.987px" height="40px" viewBox="31.824 0 119.987 40" enable-background="new 31.824 0 119.987 40" xml:space="preserve"
	>
<g>
	<path fill="#FFFFFF" stroke="#FFFFFF" stroke-width="0.7" stroke-miterlimit="10" d="M35.359,25.615h8.193
		c0.202,0,0.355-0.045,0.459-0.137c0.104-0.093,0.189-0.254,0.254-0.488h0.313v3.447h-0.313c-0.064-0.234-0.149-0.396-0.254-0.488
		c-0.104-0.092-0.257-0.137-0.459-0.137H31.824V27.5c0.233-0.064,0.396-0.15,0.487-0.254s0.138-0.258,0.138-0.459V15.508
		c0-0.202-0.046-0.355-0.138-0.459s-0.254-0.189-0.487-0.254v-0.313h4.159v0.313c-0.233,0.059-0.396,0.142-0.487,0.249
		c-0.092,0.107-0.138,0.262-0.138,0.464V25.615z"/>
	<path fill="#FFFFFF" stroke="#FFFFFF" stroke-width="0.7" stroke-miterlimit="10" d="M61.422,15.508v7.471
		c0,1.412-0.261,2.472-0.781,3.174c-0.938,1.265-2.875,1.896-5.811,1.896c-2.123,0-3.747-0.342-4.873-1.024
		c-0.658-0.396-1.113-0.938-1.367-1.621c-0.248-0.678-0.371-1.484-0.371-2.422v-7.472c0-0.202-0.045-0.355-0.137-0.459
		s-0.254-0.189-0.488-0.254v-0.313h4.16v0.313c-0.231,0.059-0.394,0.142-0.486,0.249s-0.139,0.262-0.139,0.464v6.65
		c0,0.768,0.042,1.336,0.127,1.704c0.085,0.367,0.244,0.675,0.479,0.923c0.625,0.664,1.693,0.996,3.203,0.996
		c1.518,0,2.588-0.332,3.213-0.996c0.229-0.248,0.386-0.556,0.47-0.923c0.085-0.368,0.127-0.938,0.127-1.704v-6.65
		c0-0.202-0.046-0.355-0.138-0.459s-0.254-0.189-0.487-0.254v-0.313h3.926v0.313c-0.234,0.065-0.397,0.15-0.488,0.254
		S61.422,15.306,61.422,15.508z"/>
	<path fill="#FFFFFF" stroke="#FFFFFF" stroke-width="0.7" stroke-miterlimit="10" d="M78.051,20.83
		c1.497,0.566,2.246,1.615,2.246,3.145c0,1.217-0.438,2.172-1.31,2.861c-0.441,0.346-0.954,0.594-1.537,0.747
		s-1.305,0.229-2.163,0.229h-9.111V27.5c0.234-0.064,0.397-0.15,0.488-0.254s0.137-0.258,0.137-0.459V15.508
		c0-0.202-0.046-0.355-0.137-0.459s-0.254-0.189-0.488-0.254v-0.313h9.023c0.865,0,1.562,0.065,2.09,0.195
		c0.526,0.13,0.988,0.352,1.387,0.664c0.788,0.619,1.182,1.51,1.182,2.676C79.857,19.32,79.255,20.257,78.051,20.83z M69.711,19.785
		h5.106c0.774,0,1.315-0.114,1.621-0.342c0.346-0.26,0.519-0.664,0.519-1.211c0-0.56-0.163-0.958-0.488-1.196
		c-0.325-0.238-0.876-0.356-1.65-0.356h-5.106L69.711,19.785L69.711,19.785z M69.711,25.615h4.94c0.918,0,1.579-0.127,1.982-0.381
		c0.462-0.293,0.693-0.771,0.693-1.437c0-0.657-0.231-1.137-0.693-1.437c-0.397-0.254-1.058-0.381-1.982-0.381h-4.94V25.615z"/>
	<path fill="#FFFFFF" stroke="#FFFFFF" stroke-width="0.7" stroke-miterlimit="10" d="M91.34,22.23v4.557
		c0,0.201,0.047,0.354,0.14,0.459c0.094,0.104,0.255,0.189,0.485,0.254v0.312h-4.18V27.5c0.233-0.064,0.399-0.15,0.498-0.254
		c0.098-0.104,0.146-0.258,0.146-0.459V22.23l-4.307-6.061c-0.371-0.521-0.662-0.87-0.874-1.049
		c-0.212-0.179-0.464-0.288-0.757-0.327v-0.313h5.264v0.313c-0.438,0.072-0.654,0.273-0.654,0.605c0,0.117,0.133,0.375,0.4,0.771
		l2.401,3.566l2.473-3.566c0.267-0.384,0.399-0.644,0.399-0.781c0-0.149-0.059-0.278-0.176-0.385s-0.277-0.177-0.479-0.21v-0.313
		h5.154v0.313c-0.293,0.039-0.545,0.148-0.757,0.327c-0.212,0.179-0.503,0.528-0.874,1.049L91.34,22.23z"/>
	<path fill="#FFFFFF" stroke="#FFFFFF" stroke-width="0.7" stroke-miterlimit="10" d="M112.197,23.232l1.855,2.777l-0.254,0.178
		c-0.183-0.17-0.332-0.256-0.449-0.256s-0.446,0.157-0.986,0.471c-1.119,0.646-2.062,1.082-2.826,1.307
		c-0.765,0.225-1.676,0.338-2.729,0.338c-2.103,0-3.828-0.498-5.176-1.494c-0.794-0.58-1.419-1.299-1.875-2.158
		c-0.527-0.981-0.791-2.065-0.791-3.252c0-1.615,0.472-3.018,1.416-4.208c1.419-1.791,3.563-2.686,6.436-2.686
		c1.056,0,1.96,0.111,2.716,0.332c0.755,0.221,1.698,0.658,2.831,1.309c0.54,0.306,0.869,0.459,0.986,0.459s0.268-0.084,0.449-0.254
		l0.254,0.176l-1.855,2.783l-0.264-0.175c0.013-0.104,0.021-0.191,0.021-0.263c0-0.188-0.081-0.364-0.244-0.53
		s-0.452-0.365-0.869-0.599c-1.152-0.648-2.373-0.973-3.662-0.973c-1.523,0-2.737,0.38-3.643,1.142
		c-1.067,0.891-1.603,2.055-1.603,3.491c0,1.438,0.534,2.603,1.603,3.492c0.904,0.762,2.118,1.143,3.643,1.143
		c1.289,0,2.51-0.326,3.662-0.977c0.417-0.234,0.706-0.436,0.869-0.602s0.244-0.344,0.244-0.532c0-0.071-0.008-0.155-0.021-0.254
		L112.197,23.232z"/>
	<path fill="#FFFFFF" stroke="#FFFFFF" stroke-width="0.7" stroke-miterlimit="10" d="M125.003,14.248
		c2.325,0,4.169,0.628,5.531,1.885c1.438,1.315,2.158,3.014,2.158,5.098c0,1.275-0.346,2.468-1.035,3.574
		c-1.35,2.162-3.561,3.242-6.636,3.242c-2.307,0-4.14-0.629-5.502-1.885c-0.729-0.67-1.283-1.475-1.661-2.412
		c-0.332-0.826-0.498-1.695-0.498-2.607c0-1.333,0.343-2.555,1.026-3.662C119.696,15.365,121.902,14.287,125.003,14.248z
		 M125.013,16.514c-1.271,0-2.33,0.377-3.177,1.132c-1.004,0.891-1.506,2.058-1.506,3.502c0,1.443,0.502,2.61,1.506,3.502
		c0.847,0.755,1.912,1.132,3.196,1.132c1.283,0,2.347-0.377,3.187-1.132c0.502-0.448,0.887-0.998,1.154-1.648
		c0.233-0.579,0.352-1.177,0.352-1.795c0-1.509-0.502-2.696-1.506-3.561C127.365,16.904,126.297,16.527,125.013,16.514z"/>
	<path fill="#FFFFFF" stroke="#FFFFFF" stroke-width="0.7" stroke-miterlimit="10" d="M140.074,18.682v8.105
		c0,0.201,0.046,0.355,0.137,0.459s0.254,0.189,0.488,0.254v0.312h-3.916V27.5c0.233-0.064,0.396-0.15,0.487-0.254
		s0.138-0.258,0.138-0.459V15.498c0-0.195-0.047-0.345-0.138-0.449s-0.254-0.189-0.487-0.254v-0.313h4.53v0.313
		c-0.279,0.072-0.42,0.221-0.42,0.449c0,0.156,0.091,0.329,0.273,0.518l7.354,7.646v-7.91c0-0.195-0.046-0.345-0.137-0.449
		s-0.254-0.189-0.488-0.254v-0.313h3.916v0.313c-0.233,0.065-0.396,0.15-0.487,0.254c-0.092,0.104-0.138,0.254-0.138,0.449v11.289
		c0,0.201,0.046,0.355,0.138,0.459c0.091,0.104,0.254,0.189,0.487,0.254v0.312h-4.199V27.5c0.273-0.059,0.41-0.199,0.41-0.42
		c0-0.131-0.158-0.357-0.479-0.684L140.074,18.682z"/>
</g>
</svg>
