<?xml version="1.0" encoding="utf-8"?>
<!-- Generator: Adobe Illustrator 16.0.4, SVG Export Plug-In . SVG Version: 6.00 Build 0)  -->
<!DOCTYPE svg PUBLIC "-//W3C//DTD SVG 1.1//EN" "http://www.w3.org/Graphics/SVG/1.1/DTD/svg11.dtd">
<svg version="1.1" id="Layer_1" xmlns="http://www.w3.org/2000/svg" xmlns:xlink="http://www.w3.org/1999/xlink" x="0px" y="0px"
	 width="500px" height="500px" viewBox="0 0 500 500" enable-background="new 0 0 500 500" xml:space="preserve">
<g>
	<path fill="#48CFAD" d="M457.932,190.708c-34.462,20.2-78.771,8.645-98.97-25.81c-20.201-34.454-8.65-78.765,25.807-98.967
		c34.455-20.202,78.763-8.644,98.965,25.809C503.935,126.196,492.383,170.506,457.932,190.708z"/>
	<path fill="#48CFAD" d="M288.249,490.307c-34.455,20.199-78.766,8.644-98.964-25.812c-20.203-34.452-8.65-78.766,25.805-98.966
		c34.458-20.205,78.767-8.646,98.969,25.81C334.258,425.792,322.706,470.103,288.249,490.307z"/>
	<g>
		<path fill="#488CCB" d="M173.771,73.364c2.084,3.557,3.937,7.185,5.588,10.861c45.097-19.755,95.441-17.302,137.382,3.79
			c7.59-19.732,20.763-37.45,38.871-50.522c-65.581-37.489-148.327-40.81-218.908-2.342
			C151.489,44.422,164.333,57.269,173.771,73.364z"/>
		<path fill="#488CCB" d="M405.435,239.287c-2.077,46.903-24.521,92.032-63.784,121.733c2.402,3.24,4.661,6.626,6.748,10.185
			c9.438,16.096,14.374,33.578,15.248,51.004c68.038-42.801,105.546-116.636,104.856-192.167
			C448.253,239.458,426.357,242.303,405.435,239.287z"/>
		<path fill="#488CCB" d="M156.729,368.272c-20.757-13.3-38.793-31.521-52.115-54.246c-13.322-22.724-20.421-47.365-21.886-71.977
			c-22.108,1.106-44.123-4.357-63.118-15.66c-1.104,40.538,8.748,81.875,30.769,119.436c22.022,37.562,53.285,66.343,89.203,85.174
			C138.989,408.905,144.97,387.025,156.729,368.272z"/>
	</g>
	<path fill="#48CFAD" d="M113.622,192.467c-34.453,20.198-78.766,8.642-98.969-25.81c-20.199-34.457-8.643-78.769,25.81-98.968
		c34.459-20.201,78.769-8.644,98.969,25.809C159.63,127.951,148.081,172.262,113.622,192.467z"/>
</g>
</svg>
