<?xml version="1.0" encoding="utf-8"?>
<!-- Generator: Adobe Illustrator 16.0.4, SVG Export Plug-In . SVG Version: 6.00 Build 0)  -->
<!DOCTYPE svg PUBLIC "-//W3C//DTD SVG 1.1//EN" "http://www.w3.org/Graphics/SVG/1.1/DTD/svg11.dtd">
<svg version="1.1" id="Layer_1" xmlns="http://www.w3.org/2000/svg" xmlns:xlink="http://www.w3.org/1999/xlink" x="0px" y="0px"
	 width="500px" height="500px" viewBox="0 0 500 500" enable-background="new 0 0 500 500" xml:space="preserve">
<path fill="#48CFAD" d="M465.352,286.332l-19.244-20.395L254.384,63.811l-17.781-18.848C181.622-13.317,94.265-15.184,41.471,40.78
	c-52.794,55.978-51.032,148.592,3.945,206.876l146.063,154.857l0.536-0.576l82.148,87.09c11.6,12.307,30.415,12.307,42.026-0.004
	c11.59-12.301,11.59-32.248-0.014-44.543l-19.235-20.41l-62.905-66.688l7.711-8.162l62.896,66.684l19.248,20.406
	c11.592,12.303,30.402,12.307,42.022-0.008c11.594-12.293,11.598-32.24-0.013-44.543l-19.245-20.402l-62.896-66.686l7.703-8.166
	l62.9,66.691l19.249,20.4c11.59,12.303,30.4,12.299,42.013,0c11.604-12.305,11.598-32.252,0.008-44.549l-19.248-20.402
	l-62.904-66.688l7.702-8.167l62.903,66.684l19.25,20.41c11.59,12.293,30.404,12.297,42.017-0.01
	C476.954,318.58,476.954,298.633,465.352,286.332z"/>
<path fill="#48CFAD" stroke="#FFFFFF" stroke-width="7" stroke-miterlimit="10" d="M96.468,333.045
	c-11.603,12.311-31.668,10.984-44.809-2.951l0,0c-13.145-13.936-14.392-35.205-2.784-47.508l49.707-52.703
	c11.594-12.306,31.661-10.975,44.821,2.967l0,0c13.132,13.925,14.383,35.199,2.78,47.496L96.468,333.045z"/>
<path fill="#48CFAD" stroke="#FFFFFF" stroke-width="7" stroke-miterlimit="10" d="M466.46,41.656
	c-52.802-55.97-143.39-50.662-202.365,11.861l-6.31,6.688l0.262,0.28l-21.599,22.903c-11.612,12.297-11.608,32.245,0,44.549
	c11.595,12.303,30.414,12.303,42.013,0l21.611-22.904L449.509,262.33l5.772-6.125C514.249,193.679,519.253,97.627,466.46,41.656z"/>
<path fill="#48CFAD" stroke="#FFFFFF" stroke-width="7" stroke-miterlimit="10" d="M144.356,383.811
	c-11.607,12.311-31.669,10.984-44.81-2.951l0,0c-13.148-13.936-14.395-35.201-2.784-47.506l49.712-52.705
	c11.595-12.305,31.652-10.979,44.809,2.965l0,0c13.145,13.928,14.391,35.201,2.789,47.504L144.356,383.811z"/>
<path fill="#48CFAD" stroke="#FFFFFF" stroke-width="7" stroke-miterlimit="10" d="M192.235,434.576
	c-11.603,12.311-31.669,10.99-44.805-2.947l0,0c-13.149-13.939-14.396-35.205-2.788-47.51l49.711-52.699
	c11.595-12.311,31.652-10.975,44.813,2.961l0,0c13.14,13.926,14.387,35.203,2.788,47.502L192.235,434.576z"/>
<path fill="#48CFAD" stroke="#FFFFFF" stroke-width="7" stroke-miterlimit="10" d="M240.119,485.344
	c-11.604,12.311-31.669,10.984-44.805-2.953l0,0c-13.148-13.934-14.395-35.199-2.792-47.506l49.716-52.703
	c11.594-12.307,31.656-10.971,44.813,2.965l0,0c13.137,13.926,14.388,35.201,2.788,47.502L240.119,485.344z"/>
</svg>
