<?xml version="1.0" encoding="utf-8"?>
<!-- Generator: Adobe Illustrator 16.0.4, SVG Export Plug-In . SVG Version: 6.00 Build 0)  -->
<!DOCTYPE svg PUBLIC "-//W3C//DTD SVG 1.1//EN" "http://www.w3.org/Graphics/SVG/1.1/DTD/svg11.dtd">
<svg version="1.1" id="Layer_1" xmlns="http://www.w3.org/2000/svg" xmlns:xlink="http://www.w3.org/1999/xlink" x="0px" y="0px"
	 width="500px" height="500px" viewBox="0 0 500 500" enable-background="new 0 0 500 500" xml:space="preserve">
<g>
	<rect x="18.62" y="86.635" fill="#4C4C4C" width="460.424" height="279.99"/>
	<path fill="#CCCCCC" d="M335.976,485.815c-9.562-2.013-16.182-6.367-16.182-11.417c0,0,0-48.19,0-52.875
		c0-4.69-5.641-4.852-5.641-4.852h-64.154h-64.152c0,0-5.64,0.161-5.64,4.852c0,4.685,0,52.875,0,52.875
		c0,5.05-6.618,9.404-16.179,11.417c-3.618,0.763-0.134,1.185-0.134,1.185h86.104h86.11
		C336.109,487,339.591,486.578,335.976,485.815z"/>
	<path fill="#2D2D2D" d="M249.999,374.637c-4.99,0-9.04,4.051-9.04,9.047c0,5.003,4.049,9.056,9.04,9.056
		c4.999,0,9.046-4.053,9.046-9.056C259.045,378.688,254.998,374.637,249.999,374.637z"/>
	<path fill="#CCCCCC" d="M480.708,76.351h-27.529c-7.81,7.555-16.759,16.301-26.521,25.745h47.622v247.799H25.724V102.096h337.48
		l24.827-25.745H19.294C8.639,76.351,0,84.995,0,95.659v296.07c0,10.664,8.639,19.311,19.293,19.311h461.414
		c10.653,0,19.292-8.646,19.292-19.311V95.659C500,84.995,491.361,76.351,480.708,76.351z M249.999,392.739
		c-4.99,0-9.04-4.053-9.04-9.056c0-4.996,4.049-9.047,9.04-9.047c4.999,0,9.046,4.051,9.046,9.047
		C259.045,388.687,254.998,392.739,249.999,392.739z"/>
	<path fill="none" d="M430.608,102.096h43.671v247.799H25.724V102.096h337.48l24.827-25.745H19.294C8.639,76.351,0,84.995,0,95.659
		v296.07c0,10.664,8.639,19.311,19.293,19.311h461.414c10.653,0,19.292-8.646,19.292-19.311V95.659
		c0-10.664-8.639-19.308-19.292-19.308"/>
	<path fill="#FFBE54" d="M258.846,214.954c-15.384,3.865-21.198,17.168-27.463,31.675c-3.837,12.334-16.971,10.766-16.971,10.766
		s60.508,12.45,67.733-19.121C289.375,206.705,258.846,214.954,258.846,214.954z"/>
	<path fill="#48CFAD" d="M270.959,201.422c2.325,2.327,23.975,23.995,23.975,23.995s1.729,2.576,4.089,0.215
		c2.361-2.36,180.255-174.543,180.255-174.543c7.923-7.932,5.097-23.621-2.708-31.428c-7.805-7.809-24.314-9.346-32.239-1.415
		L270.926,197.212C270.926,197.212,268.634,199.095,270.959,201.422z"/>
</g>
</svg>
