<?xml version="1.0" encoding="utf-8"?>
<!-- Generator: Adobe Illustrator 16.0.0, SVG Export Plug-In . SVG Version: 6.00 Build 0)  -->
<!DOCTYPE svg PUBLIC "-//W3C//DTD SVG 1.1//EN" "http://www.w3.org/Graphics/SVG/1.1/DTD/svg11.dtd">
<svg version="1.1" id="Layer_1" xmlns="http://www.w3.org/2000/svg" xmlns:xlink="http://www.w3.org/1999/xlink" x="0px" y="0px"
	 width="180.188px" height="40px" viewBox="0 0 180.188 40" enable-background="new 0 0 180.188 40" xml:space="preserve">
<g>
	<path fill="#FF3366" d="M30.633,9.105c-1.473-1.47-3.168-2.578-4.979-3.328c-1.876-0.777-3.875-1.166-5.874-1.168l4.262,5.058
		L30.633,9.105z"/>
	<path fill="#FF6666" d="M19.747,4.611c-2,0.002-3.999,0.391-5.874,1.168c-1.811,0.749-3.507,1.858-4.979,3.327l6.591,0.563
		L19.747,4.611z"/>
	<path fill="#660033" d="M8.893,30.895c1.473,1.471,3.169,2.578,4.98,3.326c1.876,0.778,3.875,1.166,5.874,1.17l-4.262-5.059
		L8.893,30.895z"/>
	<path fill="#FF6666" d="M8.87,9.129c-1.47,1.473-2.579,3.168-3.328,4.979c-0.776,1.876-1.165,3.875-1.167,5.873l5.057-4.261
		L8.87,9.129z"/>
	<path fill="#660033" d="M4.375,20.017c0.002,1.999,0.391,3.998,1.167,5.873c0.749,1.812,1.857,3.508,3.328,4.981l0.562-6.593
		L4.375,20.017z"/>
	<path fill="#660000" d="M35.152,20.017l-5.058,4.264l0.562,6.591c1.47-1.474,2.579-3.17,3.328-4.98
		C34.761,24.015,35.15,22.016,35.152,20.017z"/>
	<path fill="#FF3333" d="M35.152,19.983c-0.002-1.999-0.392-3.997-1.167-5.874c-0.749-1.812-1.858-3.507-3.329-4.979l-0.562,6.592
		L35.152,19.983z"/>
	<path fill="#330000" d="M19.78,35.391c1.999-0.005,3.998-0.393,5.874-1.17c1.811-0.749,3.507-1.857,4.98-3.327l-6.591-0.562
		L19.78,35.391z"/>
	<path fill="#FF99CC" d="M30.657,9.129l0.003-0.025l-0.027,0.002c0.004,0.004,0.008,0.008,0.012,0.012
		C30.649,9.122,30.652,9.125,30.657,9.129z"/>
	<path fill="#FF99CC" d="M19.781,4.611l-0.017-0.02l-0.017,0.02C19.757,4.611,19.769,4.611,19.781,4.611z"/>
	<path fill="#FF99CC" d="M35.152,20.017L35.172,20l-0.02-0.017C35.152,19.994,35.152,20.005,35.152,20.017z"/>
	<path fill="#FF99CC" d="M8.893,9.105L8.867,9.104L8.87,9.129C8.874,9.125,8.876,9.122,8.88,9.118
		C8.885,9.114,8.889,9.109,8.893,9.105z"/>
	<path fill="#FF99CC" d="M30.633,30.895l0.026,0.002l-0.002-0.024c-0.004,0.005-0.007,0.008-0.011,0.013
		C30.642,30.887,30.638,30.892,30.633,30.895z"/>
	<path fill="#FF99CC" d="M19.747,35.391l0.017,0.018l0.017-0.018C19.769,35.391,19.757,35.391,19.747,35.391z"/>
	<path fill="#FF99CC" d="M8.87,30.871l-0.002,0.023l0.025-0.001c-0.004-0.004-0.008-0.008-0.012-0.012
		C8.876,30.879,8.874,30.876,8.87,30.871z"/>
	<path fill="#FF99CC" d="M4.375,19.982l-0.021,0.017l0.021,0.018C4.375,20.005,4.375,19.994,4.375,19.982z"/>
	<path fill="#F49595" d="M19.763,19.999l4.279-10.331l-4.262-5.058c-0.012,0-0.022,0-0.034,0l-4.263,5.058L19.763,19.999
		L19.763,19.999z"/>
	<rect x="19.763" y="19.999" fill="#FF99CC" width="0" height="0.001"/>
	<path fill="#FFCCCC" d="M19.763,20l-4.28-10.332L8.893,9.105C8.889,9.109,8.885,9.114,8.88,9.118
		C8.876,9.122,8.874,9.125,8.87,9.129l0.562,6.591L19.763,20L19.763,20z"/>
	<path fill="#F46E7E" d="M30.095,15.721l0.562-6.591c-0.003-0.004-0.006-0.008-0.011-0.012c-0.004-0.005-0.008-0.008-0.012-0.012
		l-6.591,0.562l-4.279,10.331L30.095,15.721z"/>
	<path fill="#FF99CC" d="M19.763,20L19.763,20L19.763,20z"/>
	<path fill="#FF99CC" d="M19.763,20L19.763,20L19.763,20z"/>
	<path fill="#CC364B" d="M35.152,19.983l-5.058-4.262l-10.332,4.278V20l10.332,4.28l5.058-4.264
		C35.152,20.005,35.152,19.994,35.152,19.983z"/>
	<path fill="#CC3333" d="M19.763,20l4.279,10.332l6.591,0.562c0.005-0.004,0.008-0.008,0.012-0.012s0.007-0.007,0.011-0.012
		l-0.562-6.593L19.763,20L19.763,20z"/>
	<path fill="#F297A6" d="M15.483,30.332l4.262,5.059c0.011,0,0.022,0,0.034,0l4.262-5.059L19.763,20L15.483,30.332z"/>
	<path fill="#D6253B" d="M19.763,20L19.763,20L9.431,24.28L8.87,30.871c0.004,0.005,0.007,0.008,0.011,0.013
		c0.004,0.003,0.008,0.008,0.012,0.011l6.591-0.563L19.763,20L19.763,20z"/>
	<path fill="#FFCCCC" d="M9.431,15.721l-5.057,4.262c0,0.012,0,0.023,0,0.035l5.057,4.263L19.763,20L9.431,15.721z"/>
	<g>
		<path fill="#FFFFFF" d="M16.994,12.074c-0.514,1.24-6.943,3.903-8.183,3.39c1.24,0.514,3.903,6.944,3.389,8.184
			c0.514-1.24,6.942-3.904,8.183-3.392C19.144,19.743,16.48,13.313,16.994,12.074z"/>
	</g>
	<g>
		<path fill="#FF99CC" d="M27.688,17.231c-1.24-0.514-3.903-6.944-3.389-8.183c-0.514,1.239-6.942,3.902-8.182,3.389
			c1.24,0.514,3.902,6.943,3.389,8.183C20.02,19.38,26.449,16.717,27.688,17.231z"/>
	</g>
	<g>
		<path fill="#FFAECF" d="M11.837,22.771c1.24,0.514,3.903,6.941,3.39,8.182c0.513-1.24,6.941-3.902,8.182-3.388
			c-1.24-0.515-3.902-6.944-3.389-8.183C19.506,20.619,13.078,23.282,11.837,22.771z"/>
	</g>
	<g>
		<path fill="#FFAECF" d="M27.325,16.354c-0.514,1.24-6.942,3.902-8.183,3.389c1.24,0.514,3.902,6.944,3.389,8.184
			c0.514-1.241,6.942-3.905,8.183-3.391C29.475,24.023,26.812,17.593,27.325,16.354z"/>
	</g>
	<g>
		<path fill="#FCE0E0" d="M8.192,24.794c2.479-1.027,7.805-13.887,6.779-16.366c1.026,2.479,13.884,7.806,16.364,6.779
			c-2.479,1.027-7.805,13.884-6.778,16.365C23.529,29.092,10.671,23.767,8.192,24.794z"/>
	</g>
</g>
<g>
	<path fill="#FFFFFF" stroke="#FFFFFF" stroke-width="0.7" stroke-miterlimit="10" d="M50.359,25.615h8.193
		c0.202,0,0.355-0.045,0.459-0.137s0.189-0.254,0.254-0.488h0.313v3.447h-0.313c-0.065-0.234-0.15-0.396-0.254-0.488
		s-0.257-0.137-0.459-0.137H46.824V27.5c0.234-0.064,0.397-0.15,0.488-0.254s0.137-0.258,0.137-0.459V15.508
		c0-0.202-0.045-0.355-0.137-0.459s-0.254-0.189-0.488-0.254v-0.313h4.16v0.313c-0.234,0.059-0.397,0.142-0.488,0.249
		s-0.137,0.262-0.137,0.464V25.615z"/>
	<path fill="#FFFFFF" stroke="#FFFFFF" stroke-width="0.7" stroke-miterlimit="10" d="M76.422,15.508v7.471
		c0,1.412-0.261,2.471-0.781,3.174c-0.938,1.264-2.875,1.895-5.811,1.895c-2.123,0-3.747-0.342-4.873-1.025
		c-0.658-0.396-1.113-0.938-1.367-1.621c-0.248-0.678-0.371-1.484-0.371-2.422v-7.471c0-0.202-0.045-0.355-0.137-0.459
		s-0.254-0.189-0.488-0.254v-0.313h4.16v0.313c-0.231,0.059-0.393,0.142-0.486,0.249c-0.093,0.107-0.139,0.262-0.139,0.464v6.65
		c0,0.768,0.042,1.336,0.127,1.704s0.244,0.675,0.479,0.923c0.625,0.664,1.693,0.996,3.203,0.996c1.517,0,2.588-0.332,3.213-0.996
		c0.229-0.248,0.385-0.555,0.469-0.923c0.085-0.368,0.127-0.937,0.127-1.704v-6.65c0-0.202-0.046-0.355-0.137-0.459
		c-0.092-0.104-0.254-0.189-0.488-0.254v-0.313h3.926v0.313c-0.234,0.065-0.397,0.15-0.488,0.254S76.422,15.306,76.422,15.508z"/>
	<path fill="#FFFFFF" stroke="#FFFFFF" stroke-width="0.7" stroke-miterlimit="10" d="M93.051,20.83
		c1.497,0.566,2.246,1.615,2.246,3.145c0,1.217-0.437,2.172-1.309,2.861c-0.442,0.346-0.955,0.594-1.538,0.747
		s-1.304,0.229-2.163,0.229h-9.111V27.5c0.234-0.064,0.397-0.15,0.488-0.254s0.137-0.258,0.137-0.459V15.508
		c0-0.202-0.046-0.355-0.137-0.459s-0.254-0.189-0.488-0.254v-0.313h9.023c0.866,0,1.563,0.065,2.09,0.195s0.989,0.352,1.387,0.664
		c0.788,0.619,1.182,1.51,1.182,2.676C94.857,19.32,94.255,20.257,93.051,20.83z M84.711,19.785h5.107
		c0.774,0,1.315-0.114,1.621-0.342c0.345-0.26,0.518-0.664,0.518-1.211c0-0.56-0.163-0.958-0.488-1.196s-0.876-0.356-1.65-0.356
		h-5.107V19.785z M84.711,25.615h4.941c0.918,0,1.579-0.127,1.982-0.381c0.462-0.293,0.693-0.771,0.693-1.436
		c0-0.658-0.231-1.137-0.693-1.436c-0.397-0.254-1.058-0.381-1.982-0.381h-4.941V25.615z"/>
	<path fill="#FFFFFF" stroke="#FFFFFF" stroke-width="0.7" stroke-miterlimit="10" d="M106.34,22.231v4.556
		c0,0.201,0.047,0.354,0.14,0.459c0.093,0.104,0.255,0.189,0.485,0.254v0.313h-4.18V27.5c0.234-0.064,0.4-0.15,0.498-0.254
		c0.098-0.104,0.146-0.258,0.146-0.459v-4.556l-4.307-6.061c-0.371-0.521-0.662-0.87-0.874-1.049
		c-0.212-0.179-0.464-0.288-0.757-0.327v-0.313h5.264v0.313c-0.437,0.072-0.654,0.273-0.654,0.605c0,0.117,0.133,0.375,0.4,0.771
		l2.402,3.566l2.472-3.566c0.267-0.384,0.4-0.644,0.4-0.781c0-0.149-0.059-0.278-0.176-0.385s-0.277-0.177-0.479-0.21v-0.313h5.155
		v0.313c-0.293,0.039-0.545,0.148-0.757,0.327c-0.212,0.179-0.503,0.528-0.874,1.049L106.34,22.231z"/>
	<path fill="#FFFFFF" stroke="#FFFFFF" stroke-width="0.7" stroke-miterlimit="10" d="M127.197,23.232l1.855,2.778l-0.254,0.177
		c-0.183-0.17-0.332-0.255-0.449-0.255s-0.446,0.157-0.986,0.47c-1.12,0.646-2.063,1.082-2.827,1.307s-1.675,0.338-2.729,0.338
		c-2.103,0-3.828-0.498-5.176-1.494c-0.794-0.58-1.419-1.299-1.875-2.158c-0.527-0.982-0.791-2.066-0.791-3.252
		c0-1.615,0.472-3.018,1.416-4.209c1.419-1.791,3.564-2.686,6.436-2.686c1.055,0,1.96,0.111,2.715,0.332s1.699,0.658,2.832,1.309
		c0.54,0.306,0.869,0.459,0.986,0.459s0.267-0.084,0.449-0.254l0.254,0.176l-1.855,2.783l-0.264-0.175
		c0.013-0.104,0.02-0.191,0.02-0.263c0-0.188-0.081-0.364-0.244-0.53s-0.452-0.365-0.869-0.599
		c-1.152-0.648-2.373-0.973-3.662-0.973c-1.523,0-2.737,0.38-3.643,1.142c-1.067,0.891-1.602,2.055-1.602,3.492
		c0,1.438,0.534,2.602,1.602,3.492c0.905,0.761,2.119,1.142,3.643,1.142c1.289,0,2.51-0.326,3.662-0.977
		c0.417-0.234,0.706-0.435,0.869-0.601s0.244-0.343,0.244-0.532c0-0.072-0.007-0.156-0.02-0.254L127.197,23.232z"/>
	<path fill="#FFFFFF" stroke="#FFFFFF" stroke-width="0.7" stroke-miterlimit="10" d="M140.003,14.248
		c2.325,0,4.169,0.628,5.531,1.885c1.439,1.315,2.159,3.014,2.159,5.098c0,1.275-0.346,2.467-1.036,3.574
		c-1.349,2.162-3.56,3.242-6.635,3.242c-2.307,0-4.14-0.629-5.502-1.885c-0.729-0.67-1.283-1.475-1.661-2.412
		c-0.332-0.826-0.498-1.695-0.498-2.607c0-1.334,0.342-2.555,1.026-3.662C134.696,15.365,136.902,14.287,140.003,14.248z
		 M140.013,16.514c-1.271,0-2.33,0.377-3.177,1.132c-1.004,0.891-1.506,2.058-1.506,3.502c0,1.444,0.502,2.611,1.506,3.502
		c0.847,0.755,1.912,1.132,3.196,1.132s2.347-0.377,3.187-1.132c0.502-0.448,0.887-0.998,1.154-1.648
		c0.234-0.579,0.352-1.177,0.352-1.795c0-1.509-0.502-2.696-1.506-3.561C142.365,16.904,141.297,16.527,140.013,16.514z"/>
	<path fill="#FFFFFF" stroke="#FFFFFF" stroke-width="0.7" stroke-miterlimit="10" d="M155.074,18.682v8.105
		c0,0.201,0.046,0.355,0.137,0.459s0.254,0.189,0.488,0.254v0.313h-3.916V27.5c0.234-0.064,0.397-0.15,0.488-0.254
		s0.137-0.258,0.137-0.459V15.498c0-0.195-0.046-0.345-0.137-0.449s-0.254-0.189-0.488-0.254v-0.313h4.531v0.313
		c-0.28,0.072-0.42,0.221-0.42,0.449c0,0.156,0.091,0.329,0.273,0.518l7.354,7.646v-7.91c0-0.195-0.046-0.345-0.137-0.449
		s-0.254-0.189-0.488-0.254v-0.313h3.916v0.313c-0.234,0.065-0.397,0.15-0.488,0.254s-0.137,0.254-0.137,0.449v11.289
		c0,0.201,0.046,0.355,0.137,0.459s0.254,0.189,0.488,0.254v0.313h-4.199V27.5c0.273-0.059,0.41-0.199,0.41-0.42
		c0-0.131-0.159-0.357-0.479-0.684L155.074,18.682z"/>
</g>
</svg>
