<?xml version="1.0" encoding="utf-8"?>
<!-- Generator: Adobe Illustrator 16.0.4, SVG Export Plug-In . SVG Version: 6.00 Build 0)  -->
<!DOCTYPE svg PUBLIC "-//W3C//DTD SVG 1.1//EN" "http://www.w3.org/Graphics/SVG/1.1/DTD/svg11.dtd">
<svg version="1.1" id="Layer_1" xmlns="http://www.w3.org/2000/svg" xmlns:xlink="http://www.w3.org/1999/xlink" x="0px" y="0px"
	 width="7181.29px" height="4189.08px" viewBox="0 0 7181.29 4189.08" enable-background="new 0 0 7181.29 4189.08"
	 xml:space="preserve">
<rect x="-202.795" y="-96.26" fill="#282828" width="7605.598" height="4406.314"/>
<g>
	<g>
		<g>
			<polygon fill="#54310F" points="4199.078,2777.353 4168.236,2760.842 4168.236,2298.209 4199.078,2314.72 			"/>
			<polygon fill="#381F0A" points="4199.078,2777.353 4229.92,2760.842 4229.92,2298.209 4199.078,2314.72 			"/>
		</g>
		<g>
			<g>
				<polygon fill="#54310F" points="2980.344,2777.353 2949.502,2760.842 2949.502,2298.209 2980.344,2314.72 				"/>
				<polygon fill="#381F0A" points="2980.344,2777.353 3011.186,2760.842 3011.186,2298.209 2980.344,2314.72 				"/>
			</g>
			<polygon fill="#47270D" points="2949.556,2299.143 2949.556,2317.835 2980.556,2339.896 2980.556,2308.703 			"/>
		</g>
		<g>
			<g>
				<polygon fill="#54310F" points="3589.711,3102.598 3558.869,3086.087 3558.869,2623.454 3589.711,2639.965 				"/>
				<polygon fill="#381F0A" points="3589.711,3102.598 3620.553,3086.087 3620.553,2623.454 3589.711,2639.965 				"/>
			</g>
			<polygon fill="#47270D" points="3558.556,2639.49 3589.612,2665.543 3589.444,2639.965 3558.556,2633.649 			"/>
		</g>
		<g>
			<polygon fill="#54310F" points="2916.558,2245.286 2916.594,2283.408 3590.295,2650.558 3590.645,2613.173 			"/>
			<polygon fill="#381F0A" points="4263.566,2245.286 4263.529,2283.408 3589.829,2650.558 3589.478,2613.173 			"/>
			<polygon fill="#47270D" points="3590.645,1877.4 2916.558,2245.286 3590.645,2613.172 4264.732,2245.286 			"/>
		</g>
	</g>
	<g>
		<path fill="#FFFFFF" d="M3623.039,1974.426c2.764,0,5.373-1.403,6.529-3.448c2.535,0.464,5.371-0.325,7.084-2.24
			c2.412-2.701,1.943-6.616-1.115-8.747l-7.725-5.401c-2.123-1.479-5.432-1.757-7.863-0.715c-2.434,1.041-4.395,3.218-4.395,5.604
			v8.719C3615.555,1971.638,3619.143,1974.426,3623.039,1974.426"/>
		<path fill="#FFFFFF" d="M3684.918,2010.224l16.705,11.639c1.293,0.901,2.834,1.339,4.365,1.339c2.084,0,4.15-0.813,5.541-2.37
			c2.414-2.701,1.891-6.617-1.168-8.747l-16.703-11.638c-3.059-2.13-7.494-1.669-9.908,1.031
			C3681.338,2004.177,3681.861,2008.093,3684.918,2010.224"/>
		<path fill="#FFFFFF" d="M3759.689,2062.316l16.703,11.639c1.295,0.901,2.834,1.339,4.365,1.339c2.084,0,4.15-0.813,5.541-2.37
			c2.412-2.701,1.891-6.617-1.168-8.748l-16.703-11.637c-3.059-2.13-7.494-1.67-9.906,1.031
			C3756.109,2056.27,3756.631,2060.186,3759.689,2062.316"/>
		<path fill="#FFFFFF" d="M3722.305,2036.271l16.703,11.638c1.295,0.902,2.834,1.339,4.365,1.339c2.084,0,4.15-0.812,5.541-2.371
			c2.414-2.7,1.891-6.616-1.168-8.746l-16.705-11.638c-3.057-2.13-7.494-1.669-9.906,1.031S3719.246,2034.141,3722.305,2036.271"/>
		<path fill="#FFFFFF" d="M3647.533,1984.178l16.705,11.638c1.295,0.902,2.834,1.339,4.365,1.339c2.084,0,4.15-0.812,5.541-2.37
			c2.414-2.701,1.891-6.617-1.168-8.747l-16.703-11.638c-3.059-2.13-7.494-1.67-9.908,1.031
			C3643.953,1978.131,3644.477,1982.047,3647.533,1984.178"/>
		<path fill="#FFFFFF" d="M3813.717,2083.985l-7.828-5.4c-3.057-2.13-7.531-1.669-9.945,1.031c-2.412,2.7-1.701,6.617,1.357,8.747
			l5.254,3.531v5.7c0,3.439,3.104,6.229,7,6.229s7-2.789,7-6.229v-8.719C3816.555,2086.969,3815.412,2085.167,3813.717,2083.985"/>
		<path fill="#FFFFFF" d="M3809.555,2111.977c-3.896,0-7,2.788-7,6.229v16.646c0,3.439,3.104,6.229,7,6.229s7-2.789,7-6.229v-16.646
			C3816.555,2114.765,3813.451,2111.977,3809.555,2111.977"/>
		<path fill="#FFFFFF" d="M3809.555,2186.492c-3.896,0-7,2.788-7,6.228v16.647c0,3.438,3.104,6.228,7,6.228s7-2.789,7-6.228v-16.647
			C3816.555,2189.28,3813.451,2186.492,3809.555,2186.492"/>
		<path fill="#FFFFFF" d="M3809.555,2149.234c-3.896,0-7,2.788-7,6.228v16.647c0,3.439,3.104,6.228,7,6.228s7-2.788,7-6.228v-16.647
			C3816.555,2152.022,3813.451,2149.234,3809.555,2149.234"/>
		<path fill="#FFFFFF" d="M3809.555,2223.749c-3.896,0-7,2.788-7,6.229v16.646c0,3.439,3.104,6.229,7,6.229s7-2.789,7-6.229v-16.646
			C3816.555,2226.537,3813.451,2223.749,3809.555,2223.749"/>
		<path fill="#FFFFFF" d="M3809.348,2261.008c-2.766,0-5.238,1.405-6.393,3.452c-0.031-0.006-0.104-0.007-0.135-0.012
			c-0.277-0.048-0.576-0.084-0.857-0.102c-0.043-0.002-0.098-0.001-0.143-0.003c-0.238-0.012-0.482-0.011-0.723,0
			c-0.094,0.004-0.188,0.01-0.281,0.018c-0.219,0.018-0.439,0.043-0.658,0.079c-0.062,0.01-0.129,0.016-0.193,0.029
			c-0.266,0.05-0.527,0.115-0.787,0.192c-0.086,0.026-0.17,0.057-0.256,0.085c-0.195,0.065-0.385,0.139-0.574,0.22
			c-0.076,0.032-0.154,0.063-0.23,0.099c-0.244,0.116-0.484,0.244-0.717,0.387c-0.055,0.035-0.107,0.074-0.164,0.11
			c-0.184,0.122-0.363,0.253-0.537,0.392c-0.064,0.052-0.129,0.104-0.191,0.157c-0.213,0.186-0.42,0.379-0.609,0.592
			c-2.412,2.702-1.885,6.618,1.174,8.747l0.736,0.513l-0.734,0.514c-3.057,2.133-3.574,6.05-1.158,8.748
			c1.391,1.555,3.455,2.365,5.537,2.365c1.531,0,3.074-0.438,4.369-1.343l7.746-5.407c0.074-0.051,0.139-0.108,0.207-0.162
			c0.084-0.063,0.166-0.126,0.246-0.192c0.154-0.128,0.297-0.262,0.438-0.401c0.061-0.06,0.125-0.116,0.182-0.179
			c0.191-0.204,0.369-0.416,0.527-0.639c0.012-0.02,0.021-0.039,0.035-0.058c0.143-0.205,0.271-0.42,0.387-0.639
			c0.041-0.077,0.074-0.157,0.111-0.236c0.078-0.167,0.15-0.337,0.213-0.51c0.031-0.091,0.061-0.181,0.09-0.272
			c0.053-0.178,0.094-0.356,0.131-0.538c0.016-0.085,0.037-0.168,0.049-0.253c0.039-0.261,0.215-0.522,0.217-0.787
			c0-0.007,0.154-0.014,0.154-0.02v-8.719C3816.555,2263.795,3813.244,2261.008,3809.348,2261.008"/>
		<path fill="#FFFFFF" d="M3623.055,2086.327c3.896,0,7.5-2.788,7.5-6.228v-16.666c0-3.438-3.604-6.228-7.5-6.228
			s-7.5,2.789-7.5,6.228v16.666C3615.555,2083.539,3619.158,2086.327,3623.055,2086.327"/>
		<path fill="#FFFFFF" d="M3623.055,2123.627c3.896,0,7.5-2.787,7.5-6.228v-16.666c0-3.438-3.604-6.228-7.5-6.228
			s-7.5,2.79-7.5,6.228v16.666C3615.555,2120.84,3619.158,2123.627,3623.055,2123.627"/>
		<path fill="#FFFFFF" d="M3623.055,2049.026c3.896,0,7.5-2.788,7.5-6.228v-16.666c0-3.44-3.604-6.228-7.5-6.228
			s-7.5,2.788-7.5,6.228v16.666C3615.555,2046.239,3619.158,2049.026,3623.055,2049.026"/>
		<path fill="#FFFFFF" d="M3620.076,2157.04l3.395-2.358l3.391,2.358c1.293,0.9,2.832,1.337,4.361,1.337
			c1.826,0,3.637-0.624,4.992-1.824c0.193-0.172,0.379-0.354,0.553-0.55c2.41-2.702,1.9-6.618-1.16-8.746l-5.053-3.525v-5.698
			c0-3.439-3.604-6.229-7.5-6.229c-3.895,0-7.5,2.789-7.5,6.229v5.697l-4.637,3.524c-3.061,2.129-3.371,6.044-0.963,8.746
			C3612.367,2158.704,3617.018,2159.168,3620.076,2157.04"/>
		<path fill="#FFFFFF" d="M3672.975,2173.263l-14.768-10.275l99.156-68.964c1.697-1.18,2.688-2.98,2.689-4.887
			c0.002-1.907-0.969-3.709-2.664-4.891l-126.834-88.532v-6.881c0-3.44-3.174-6.229-7.068-6.229c-2.873,0-5.348,1.519-6.447,3.693
			l-45.431-31.705c-2.563-1.79-6.187-1.789-8.75,0.001l-185.726,129.652c-0.072,0.05-0.135,0.107-0.204,0.16
			c-0.086,0.064-0.17,0.129-0.251,0.196c-0.152,0.126-0.294,0.259-0.432,0.395c-0.062,0.062-0.129,0.121-0.188,0.185
			c-0.189,0.203-0.367,0.415-0.524,0.636c-0.016,0.022-0.027,0.046-0.043,0.068c-0.14,0.203-0.267,0.413-0.38,0.628
			c-0.041,0.078-0.074,0.16-0.113,0.24c-0.077,0.166-0.148,0.334-0.211,0.506c-0.031,0.091-0.062,0.183-0.09,0.275
			c-0.053,0.177-0.095,0.356-0.131,0.536c-0.016,0.085-0.037,0.169-0.049,0.255c-0.038,0.259-0.011,0.521-0.012,0.786
			c0,0.006,0.05,0.014,0.05,0.02v187.078c0,1.906,0.938,3.708,2.633,4.889l185.699,129.398c1.269,0.885,2.801,1.34,4.356,1.34
			c1.047,0,2.229-0.206,3.205-0.624c2.434-1.041,4.106-3.218,4.106-5.605v-26.389l16.241,11.43c1.295,0.904,2.77,1.342,4.301,1.342
			c2.084,0,4.113-0.811,5.504-2.365c2.416-2.698,1.881-6.615-1.176-8.748l-16.581-11.661c-2.503-1.747-6.289-1.754-8.289-0.217
			v-147.643l72.44-50.477c0.213,0.191,0.367,0.377,0.611,0.548l16.67,11.197c1.293,0.899,2.822,0.913,4.35,0.913h-0.012h-0.006
			c2.088,0,4.152-0.391,5.543-1.95C3676.564,2178.885,3676.035,2175.392,3672.975,2173.263 M3566.801,1967.418l48.754,34.328v3.753
			c0,3.438,3.59,6.228,7.484,6.228c1.867,0,3.777-0.646,5.039-1.692l113.428,79.088l-174.328,121.281l-11.913-8.306l6.722-4.666
			c3.061-2.128,3.594-6.044,1.182-8.746c-2.41-2.701-6.84-3.167-9.901-1.039l-9.375,6.522l-151.216-105.047L3566.801,1967.418z
			 M3388.556,2273.189v-171.223l110.64,76.967l34.783,24.196c-0.316,1.671,0.127,3.448,1.408,4.884
			c1.391,1.56,3.458,2.375,5.545,2.375c0.932,0,2.05-0.183,2.932-0.514l16.692,11.48v132.139l-15.064-10.381
			c-3.057-2.132-7.587-1.674-10.002,1.024c-2.416,2.698-1.943,6.615,1.112,8.748l16.686,11.662c1.295,0.903,3.016,1.342,4.547,1.342
			c0.869,0,1.722-0.149,2.722-0.426v27.296L3388.556,2273.189z"/>
		<path fill="#FFFFFF" d="M3722.307,2223.438l16.703,11.62c1.295,0.899,2.832,1.336,4.361,1.336c2.086,0,4.152-0.815,5.545-2.374
			c0.301-0.338,0.557-0.695,0.768-1.064c0.525-0.925,0.77-1.931,0.744-2.928c-0.047-1.794-0.965-3.557-2.688-4.754l-16.703-11.62
			c-3.061-2.128-7.494-1.664-9.906,1.037c-1.055,1.182-1.547,2.597-1.512,3.993
			C3719.666,2220.479,3720.586,2222.241,3722.307,2223.438"/>
		<path fill="#FFFFFF" d="M3759.689,2249.444l16.703,11.62c1.295,0.899,2.832,1.336,4.361,1.336c2.086,0,4.152-0.814,5.545-2.374
			c1.055-1.183,1.547-2.596,1.512-3.992c-0.047-1.794-0.967-3.557-2.688-4.754l-16.703-11.62c-0.764-0.532-1.615-0.902-2.5-1.116
			c-0.004-0.001-0.01-0.001-0.014-0.003c-0.215-0.051-0.434-0.094-0.652-0.127c-2.467-0.374-5.082,0.426-6.74,2.284
			C3756.102,2243.4,3756.629,2247.315,3759.689,2249.444"/>
		<path fill="#FFFFFF" d="M3710.357,2199.269l-16.703-11.62c-3.059-2.127-7.494-1.664-9.906,1.038
			c-2.41,2.7-1.883,6.616,1.176,8.746l16.703,11.62c1.293,0.899,2.832,1.336,4.361,1.336c2.086,0,4.152-0.814,5.545-2.374
			C3713.943,2205.313,3713.418,2201.397,3710.357,2199.269"/>
		<path fill="#FFFFFF" d="M3739.004,2317.015l-16.705,11.661c-3.055,2.134-3.574,6.051-1.158,8.749
			c1.393,1.554,3.455,2.364,5.537,2.364c1.533,0,3.076-0.438,4.371-1.343l16.705-11.661c3.055-2.133,3.574-6.05,1.158-8.748
			C3746.498,2315.34,3742.061,2314.881,3739.004,2317.015"/>
		<path fill="#FFFFFF" d="M3776.393,2290.914l-16.705,11.662c-3.057,2.133-3.576,6.051-1.16,8.748
			c1.393,1.556,3.455,2.366,5.539,2.366c1.531,0,3.074-0.438,4.369-1.343l16.705-11.662c3.057-2.133,3.574-6.05,1.16-8.748
			C3783.885,2289.239,3779.449,2288.781,3776.393,2290.914"/>
		<path fill="#FFFFFF" d="M3701.617,2343.114l-16.705,11.662c-3.057,2.133-3.574,6.05-1.158,8.748
			c1.393,1.554,3.453,2.365,5.537,2.365c1.531,0,3.074-0.438,4.369-1.344l16.705-11.66c3.057-2.134,3.574-6.051,1.16-8.748
			C3709.109,2341.439,3704.674,2340.981,3701.617,2343.114"/>
		<path fill="#FFFFFF" d="M3664.23,2369.214l-16.705,11.662c-3.057,2.133-3.576,6.05-1.16,8.748
			c1.393,1.555,3.455,2.365,5.539,2.365c1.531,0,3.074-0.438,4.369-1.343l16.705-11.662c3.057-2.133,3.574-6.05,1.158-8.748
			C3671.721,2367.539,3667.287,2367.081,3664.23,2369.214"/>
		<path fill="#FFFFFF" d="M3626.842,2395.314l-3.373,2.354l-3.373-2.354c-3.055-2.133-7.492-1.676-9.906,1.023
			c-2.416,2.699-1.896,6.615,1.158,8.748l7.748,5.407c1.283,0.895,2.828,1.342,4.375,1.342c1.545,0,3.092-0.448,4.375-1.342
			l7.746-5.408c3.055-2.134,3.574-6.05,1.158-8.748S3629.896,2393.182,3626.842,2395.314"/>
		<path fill="#FFFFFF" d="M3524.615,2328.676l-16.709-11.662c-3.057-2.132-7.493-1.675-9.908,1.023
			c-2.416,2.698-1.897,6.615,1.159,8.748l16.71,11.662c1.295,0.904,2.837,1.342,4.369,1.342c2.082,0,4.146-0.811,5.537-2.365
			C3528.189,2334.726,3527.671,2330.809,3524.615,2328.676"/>
		<path fill="#FFFFFF" d="M3487.218,2302.575l-16.71-11.662c-3.058-2.132-7.492-1.674-9.907,1.024
			c-2.416,2.699-1.897,6.615,1.159,8.748l16.71,11.662c1.295,0.903,2.837,1.342,4.368,1.342c2.084,0,4.147-0.811,5.539-2.366
			C3490.793,2308.625,3490.273,2304.708,3487.218,2302.575"/>
		<path fill="#FFFFFF" d="M3450.997,2266.705c-2.411-2.701-6.844-3.167-9.905-1.038l-7.758,5.396
			c-1.695,1.18-2.687,2.979-2.688,4.887c-0.001,1.907,0.985,3.709,2.68,4.891l7.747,5.406c1.295,0.904,2.838,1.344,4.369,1.344
			c2.083,0,4.146-0.812,5.539-2.366c2.415-2.699,1.896-6.616-1.16-8.748l-0.734-0.513l0.735-0.512
			C3452.881,2273.323,3453.407,2269.407,3450.997,2266.705"/>
		<path fill="#FFFFFF" d="M3478.484,2239.66l-16.707,11.62c-3.06,2.128-3.587,6.044-1.176,8.746c1.392,1.56,3.458,2.375,5.545,2.375
			c1.528,0,3.066-0.437,4.36-1.336l16.706-11.62c3.062-2.129,3.588-6.045,1.178-8.747
			C3485.979,2237.997,3481.547,2237.531,3478.484,2239.66"/>
		<path fill="#FFFFFF" d="M3578.324,2184.382c1.528,0,3.067-0.437,4.36-1.336l16.706-11.62c3.062-2.128,3.588-6.044,1.178-8.746
			s-6.846-3.167-9.904-1.039l-16.709,11.62c-3.06,2.129-3.586,6.044-1.176,8.746
			C3574.171,2183.568,3576.236,2184.382,3578.324,2184.382"/>
		<path fill="#FFFFFF" d="M3515.878,2213.654l-16.708,11.62c-3.061,2.128-3.586,6.044-1.176,8.746
			c1.391,1.56,3.458,2.375,5.545,2.375c1.527,0,3.066-0.438,4.359-1.337l16.708-11.619c3.061-2.129,3.587-6.044,1.177-8.746
			S3518.938,2211.525,3515.878,2213.654"/>
		<path fill="#FFFFFF" d="M3702.682,1868.116H3478.95c-31.896,0-57.993-27.841-57.993-61.869l-66.279-960.841
			c0-34.028,26.097-61.869,57.994-61.869h348.004c31.896,0,57.994,27.841,57.994,61.869l-57.994,960.841
			C3760.676,1840.275,3734.58,1868.116,3702.682,1868.116"/>
	</g>
	<text transform="matrix(1 0 0 1 3128.3765 3310.4023)"><tspan x="0" y="0" fill="#B7B7B7" font-family="'MyriadPro-Regular'" font-size="190.7888">404 ER</tspan><tspan x="530.571" y="0" fill="#B7B7B7" font-family="'MyriadPro-Regular'" font-size="190.7888">R</tspan><tspan x="633.786" y="0" fill="#B7B7B7" font-family="'MyriadPro-Regular'" font-size="190.7888">OR</tspan></text>
</g>
</svg>
