<?xml version="1.0" encoding="utf-8"?>
<!-- Generator: Adobe Illustrator 16.0.4, SVG Export Plug-In . SVG Version: 6.00 Build 0)  -->
<!DOCTYPE svg PUBLIC "-//W3C//DTD SVG 1.1//EN" "http://www.w3.org/Graphics/SVG/1.1/DTD/svg11.dtd">
<svg version="1.1" id="Layer_1" xmlns="http://www.w3.org/2000/svg" xmlns:xlink="http://www.w3.org/1999/xlink" x="0px" y="0px"
	 width="510.317px" height="110.316px" viewBox="0 0 510.317 110.316" enable-background="new 0 0 510.317 110.316"
	 xml:space="preserve">
<path fill="#97CFC1" d="M17.207,4.762c-6.627,0-12,5.373-12,12v76c0,6.627,5.373,12,12,12h16.315l52.95-100H17.207z"/>
<path fill="#5EBBA3" d="M493.208,4.762H86.472l-52.95,100h459.686c6.627,0,12-5.373,12-12v-76
	C505.208,10.135,499.834,4.762,493.208,4.762z"/>
<rect x="8.287" y="36.271" fill="none" width="495.92" height="69.937"/>
<g enable-background="new    ">
	<path fill="#FFFFFF" d="M74.383,55.757v-0.675c0-10.709,5.94-15.344,13.859-15.344c3.87,0,6.03,0.854,7.695,1.664v2.16
		c-1.8-0.854-3.96-1.71-7.83-1.71c-7.74,0-11.115,5.4-11.115,12.915v0.944c0,7.92,2.835,13.005,11.205,13.005
		c2.475,0,4.725-0.405,6.39-0.99v-9.314h-6.839v-2.07h9.314v12.915c-2.43,0.854-5.355,1.575-8.91,1.575
		C79.423,70.832,74.383,65.837,74.383,55.757z"/>
	<path fill="#FFFFFF" d="M101.967,59.672v-0.585c0-7.244,4.185-11.204,9.854-11.204c5.985,0,9.9,3.824,9.9,11.069v0.54
		c0,7.244-4.185,11.249-9.945,11.249C105.837,70.741,101.967,66.917,101.967,59.672z M119.292,59.717v-0.854
		c0-6.57-3.24-9.045-7.515-9.045c-4.365,0-7.379,3.149-7.379,9.045v0.899c0,6.435,3.195,9.045,7.47,9.045
		C116.277,68.807,119.292,65.702,119.292,59.717z"/>
	<path fill="#FFFFFF" d="M139.946,65.747V50.223h-3.24v-1.936h3.24v-5.22h2.385v5.22h6.03v1.936h-6.03v15.209
		c0,2.205,0.765,3.195,3.51,3.195c0.99,0,2.07-0.181,2.97-0.405v1.575c-0.765,0.404-1.845,0.765-3.555,0.765
		C141.881,70.562,139.946,69.122,139.946,65.747z"/>
	<path fill="#FFFFFF" d="M152.141,59.672v-0.585c0-7.244,4.185-11.204,9.854-11.204c5.985,0,9.9,3.824,9.9,11.069v0.54
		c0,7.244-4.185,11.249-9.945,11.249C156.011,70.741,152.141,66.917,152.141,59.672z M169.465,59.717v-0.854
		c0-6.57-3.24-9.045-7.515-9.045c-4.365,0-7.379,3.149-7.379,9.045v0.899c0,6.435,3.195,9.045,7.47,9.045
		C166.451,68.807,169.465,65.702,169.465,59.717z"/>
	<path fill="#FFFFFF" d="M188.771,48.287h2.25v1.846h0.135c1.62-1.17,3.959-2.25,7.109-2.25c4.995,0,8.955,2.609,8.955,11.069v0.45
		c0,7.919-3.87,11.339-10.08,11.339c-2.655,0-4.68-0.765-6.03-1.574v7.964h-2.34V48.287z M204.79,59.717v-0.675
		c0-7.064-2.7-9.09-7.065-9.09c-2.88,0-5.265,0.99-6.615,1.936v15.254c1.26,0.855,3.375,1.665,5.895,1.665
		C201.82,68.807,204.79,66.197,204.79,59.717z"/>
	<path fill="#FFFFFF" d="M212.305,48.242h2.295v2.61h0.135c1.35-1.44,3.825-2.88,6.569-2.88c0.45,0,0.99,0.045,1.305,0.135v2.16
		c-0.495-0.09-1.125-0.135-1.485-0.135c-2.52,0-4.86,1.125-6.435,2.475v17.774h-2.385V48.242z"/>
	<path fill="#FFFFFF" d="M225.625,59.582v-0.495c0-7.694,4.41-11.204,9.585-11.204c5.984,0,8.729,3.689,8.729,10.305v1.35H228.01
		c0,6.39,2.79,9.135,8.37,9.135c2.97,0,5.084-0.675,6.839-1.575v1.845c-1.35,0.811-3.78,1.8-7.155,1.8
		C229.134,70.741,225.625,66.692,225.625,59.582z M228.055,57.648h13.454c0-5.22-2.07-7.83-6.39-7.83
		C231.654,49.818,228.415,52.023,228.055,57.648z"/>
	<path fill="#FFFFFF" d="M246.595,48.242h2.565l7.02,18.989h0.135l7.02-18.989h2.34l-8.324,22.14h-2.385L246.595,48.242z"/>
	<path fill="#FFFFFF" d="M270.084,40.818h2.475v2.745h-2.475V40.818z M270.129,48.287h2.385v22.095h-2.385V48.287z"/>
	<path fill="#FFFFFF" d="M277.6,59.672v-0.585c0-7.244,4.185-11.204,9.854-11.204c5.985,0,9.9,3.824,9.9,11.069v0.54
		c0,7.244-4.186,11.249-9.945,11.249C281.469,70.741,277.6,66.917,277.6,59.672z M294.924,59.717v-0.854
		c0-6.57-3.24-9.045-7.516-9.045c-4.364,0-7.379,3.149-7.379,9.045v0.899c0,6.435,3.195,9.045,7.47,9.045
		C291.909,68.807,294.924,65.702,294.924,59.717z"/>
	<path fill="#FFFFFF" d="M302.305,64.577v-16.29h2.34v15.93c0,3.285,1.439,4.5,4.949,4.5c2.475,0,4.904-0.811,7.064-2.115V48.287
		h2.385v22.095h-2.069l-0.226-2.07h-0.135c-2.34,1.485-5.039,2.475-7.649,2.475C304.735,70.786,302.305,68.807,302.305,64.577z"/>
	<path fill="#FFFFFF" d="M323.994,69.122v-1.936c1.756,0.811,3.556,1.485,6.705,1.485c3.96,0,5.445-1.665,5.445-3.96
		c0-2.565-1.125-3.465-4.32-4.365l-2.34-0.72c-3.285-0.9-5.265-2.34-5.265-5.939c0-3.42,2.385-5.805,7.199-5.805
		c2.835,0,4.68,0.675,5.94,1.305v1.935c-1.351-0.63-3.51-1.17-5.805-1.17c-3.375,0-5.085,1.26-5.085,3.555s1.035,3.24,3.779,4.05
		l2.431,0.676c4.05,1.125,5.85,2.43,5.85,6.3c0,3.734-2.521,6.164-7.56,6.164C327.999,70.697,325.614,70.022,323.994,69.122z"/>
	<path fill="#FFFFFF" d="M355.403,48.287h2.25v1.846h0.135c1.62-1.17,3.96-2.25,7.109-2.25c4.995,0,8.955,2.609,8.955,11.069v0.45
		c0,7.919-3.87,11.339-10.08,11.339c-2.654,0-4.68-0.765-6.029-1.574v7.964h-2.34V48.287z M371.421,59.717v-0.675
		c0-7.064-2.699-9.09-7.064-9.09c-2.88,0-5.265,0.99-6.614,1.936v15.254c1.26,0.855,3.375,1.665,5.895,1.665
		C368.452,68.807,371.421,66.197,371.421,59.717z"/>
	<path fill="#FFFFFF" d="M377.498,64.712c0-3.825,2.295-5.85,6.615-6.345l6.524-0.72v-2.88c0-3.735-1.71-4.815-5.67-4.815
		c-2.205,0-4.005,0.36-5.58,0.811v-1.71c1.891-0.766,3.96-1.17,6.436-1.17c4.589,0,7.154,1.89,7.154,6.345v16.154h-1.98l-0.18-1.98
		h-0.135c-1.125,1.17-3.15,2.34-6.39,2.34C380.288,70.741,377.498,68.537,377.498,64.712z M390.637,66.917v-7.515l-5.895,0.675
		c-3.33,0.359-4.86,1.71-4.86,4.545c0,2.744,1.936,4.274,4.995,4.274C387.352,68.897,389.467,67.951,390.637,66.917z"/>
	<path fill="#FFFFFF" d="M396.937,71.597c0-2.61,1.935-4.095,4.364-5.04v-0.135c-1.215-0.271-2.25-1.215-2.25-2.655
		c0-1.35,0.811-2.34,2.295-3.51c-1.664-1.08-2.789-2.925-2.789-5.354v-0.405c0-4.319,3.42-6.614,8.145-6.614
		c1.035,0,1.979,0.09,2.925,0.359h7.335v1.755h-4.5c1.395,1.08,2.16,2.61,2.16,4.68v0.136c0,4.454-3.42,6.794-7.965,6.794
		c-1.485,0-2.835-0.225-4.05-0.675c-0.721,0.54-1.306,1.215-1.306,2.025c0,1.215,0.855,1.89,2.476,1.89h6.345
		c3.914,0,6.84,1.26,6.84,5.399c0,3.69-3.016,6.75-10.395,6.75C399.772,76.996,396.937,74.746,396.937,71.597z M414.486,70.562
		c0-2.79-1.62-3.51-4.725-3.51h-6.524c-2.16,0.72-3.825,1.979-3.825,4.229c0,2.34,1.845,3.78,7.064,3.78
		C412.372,75.062,414.486,73.217,414.486,70.562z M412.327,54.903v-0.271c0-3.374-2.295-4.904-5.67-4.904
		c-3.465,0-5.67,1.71-5.67,4.859v0.271c0,3.284,2.295,4.949,5.67,4.949C410.122,59.807,412.327,58.142,412.327,54.903z"/>
	<path fill="#FFFFFF" d="M419.617,59.582v-0.495c0-7.694,4.41-11.204,9.585-11.204c5.984,0,8.729,3.689,8.729,10.305v1.35h-15.93
		c0,6.39,2.79,9.135,8.37,9.135c2.97,0,5.085-0.675,6.84-1.575v1.845c-1.351,0.811-3.78,1.8-7.155,1.8
		C423.126,70.741,419.617,66.692,419.617,59.582z M422.046,57.648h13.455c0-5.22-2.07-7.83-6.39-7.83
		C425.647,49.818,422.407,52.023,422.046,57.648z"/>
</g>
</svg>
